<?xml version="1.0" standalone="no"?>
<!DOCTYPE svg PUBLIC "-//W3C//DTD SVG 20010904//EN"
 "http://www.w3.org/TR/2001/REC-SVG-20010904/DTD/svg10.dtd">
<svg version="1.0" xmlns="http://www.w3.org/2000/svg"
 width="700.000000pt" height="700.000000pt" viewBox="0 0 700.000000 700.000000"
 preserveAspectRatio="xMidYMid meet">
<metadata>
Created by potrace 1.14, written by Peter Selinger 2001-2017
</metadata>
<g transform="translate(0.000000,700.000000) scale(0.100000,-0.100000)"
fill="#000000" stroke="none">
<path d="M3289 6985 c-2 -1 -42 -6 -89 -9 -47 -3 -94 -8 -105 -10 -11 -2 -49
-7 -85 -11 -36 -4 -67 -8 -70 -10 -3 -2 -26 -6 -50 -10 -398 -58 -900 -256
-1278 -502 -373 -242 -695 -547 -942 -893 -375 -524 -590 -1111 -648 -1765 -9
-107 -9 -447 1 -565 12 -147 31 -275 64 -425 8 -38 17 -81 19 -95 12 -60 80
-285 119 -390 136 -364 294 -646 533 -953 112 -144 144 -179 298 -332 472
-471 1098 -804 1754 -935 163 -32 191 -36 380 -55 123 -12 539 -13 625 -1 17
2 62 7 100 11 39 4 131 18 205 31 580 106 1108 348 1575 721 114 91 360 329
457 443 317 373 561 824 697 1290 30 101 74 287 85 360 3 19 8 44 10 56 2 12
7 45 11 74 4 29 8 61 10 71 26 134 26 680 0 829 -2 14 -6 45 -9 70 -6 52 -30
185 -45 250 -5 25 -12 56 -15 70 -12 67 -94 344 -116 395 -5 11 -29 70 -54
131 -83 207 -220 461 -351 651 -241 351 -577 683 -930 920 -257 172 -549 314
-856 417 -112 37 -272 82 -329 91 -19 3 -48 10 -65 15 -16 4 -52 11 -78 15
-27 4 -59 8 -70 11 -103 21 -309 37 -513 39 -133 2 -243 2 -245 0z m561 -109
c25 -3 81 -11 125 -17 508 -67 1043 -279 1475 -583 300 -210 609 -520 827
-828 296 -417 509 -954 579 -1453 3 -27 8 -59 10 -70 19 -105 26 -621 10 -770
-11 -107 -36 -261 -57 -352 -10 -44 -21 -96 -24 -114 -3 -18 -8 -35 -10 -39
-2 -3 -6 -17 -8 -31 -12 -62 -119 -370 -162 -464 -55 -123 -95 -202 -142 -289
-63 -114 -220 -356 -231 -356 -6 0 -261 187 -272 200 -3 3 -39 30 -80 60 -41
29 -79 58 -85 62 -5 5 -109 83 -230 174 -121 90 -224 170 -229 177 -6 9 8 38
42 88 145 216 270 509 318 743 33 160 47 300 47 461 0 103 -10 285 -18 307 -2
7 -6 36 -9 63 -28 242 -133 544 -279 800 -129 227 -377 498 -617 675 -309 229
-666 373 -1022 414 -27 4 -69 9 -95 12 -64 8 -353 8 -428 0 -119 -13 -152 -18
-270 -42 -232 -48 -514 -163 -710 -289 -105 -68 -272 -201 -371 -297 -459
-444 -685 -984 -686 -1633 0 -147 8 -259 28 -380 12 -78 69 -284 103 -378 62
-167 167 -366 263 -500 l27 -39 -446 -335 c-246 -184 -452 -337 -458 -339 -12
-5 -97 113 -177 246 -251 420 -417 921 -465 1405 -16 160 -8 690 12 765 2 8 6
36 9 61 48 378 202 827 409 1189 80 139 228 361 267 400 3 3 21 25 40 50 47
62 87 106 210 233 445 462 1002 779 1642 936 138 34 338 67 464 77 43 3 81 8
83 10 6 6 541 -3 591 -10z m-39 -1241 c57 -9 119 -18 138 -21 19 -2 37 -6 41
-9 4 -2 21 -7 39 -10 17 -3 87 -23 154 -45 421 -139 813 -430 1080 -804 87
-121 92 -129 171 -288 90 -182 149 -358 182 -541 62 -355 52 -672 -32 -987
-113 -420 -398 -849 -744 -1119 -36 -28 -69 -54 -75 -59 -102 -81 -387 -229
-555 -287 -117 -40 -279 -82 -355 -91 -27 -4 -53 -8 -57 -10 -11 -7 -198 -18
-298 -18 -99 0 -279 11 -302 18 -7 3 -32 7 -55 10 -89 11 -333 77 -408 110
-16 8 -64 28 -105 46 -386 166 -732 469 -969 848 -118 190 -230 459 -267 645
-34 175 -46 285 -47 435 0 112 10 309 17 321 2 3 7 30 10 60 22 181 119 488
205 648 25 46 115 199 120 203 4 3 18 23 32 45 47 73 184 228 285 324 259 245
548 415 864 509 279 83 652 109 931 67z m-2001 -4273 c0 -31 -26 -62 -51 -62
-16 0 -17 -3 -7 -25 9 -19 8 -29 -6 -50 -15 -23 -23 -27 -58 -28 -22 -1 -52
16 -85 47 -37 32 -39 39 -20 58 7 7 41 48 75 90 l63 78 45 -42 c29 -27 44 -50
44 -66z m3488 86 c9 -9 5 -19 -20 -45 -30 -31 -31 -34 -15 -50 16 -16 18 -16
40 5 27 26 40 27 57 8 9 -12 6 -20 -19 -43 -27 -25 -29 -30 -17 -46 13 -17 15
-16 45 9 30 25 33 26 51 9 19 -17 18 -18 -37 -63 l-55 -45 -33 39 c-18 21 -53
64 -79 94 l-46 55 48 42 c51 45 61 50 80 31z m-173 -166 c-39 -28 -41 -34 -20
-52 11 -9 20 -8 45 10 30 21 32 22 45 4 12 -17 10 -22 -17 -44 -20 -18 -27
-30 -23 -42 9 -23 20 -23 57 3 16 12 30 20 31 18 2 -2 8 -11 15 -20 11 -15 5
-22 -45 -58 l-57 -40 -15 22 c-8 12 -41 57 -72 99 l-57 76 21 16 c96 70 89 67
109 49 17 -16 17 -17 -17 -41z m-3168 0 c46 -34 50 -40 38 -56 -13 -18 -15
-17 -43 3 -36 26 -48 26 -56 4 -5 -12 2 -25 24 -43 29 -23 30 -26 14 -42 -16
-16 -19 -15 -48 7 l-32 24 -13 -21 c-11 -18 -9 -23 21 -48 31 -27 32 -30 16
-45 -15 -16 -20 -15 -72 22 l-55 40 67 96 c37 53 72 96 78 97 6 0 33 -17 61
-38z m3025 -110 c21 -20 25 -45 14 -78 -6 -19 1 -24 55 -44 l61 -22 -28 -18
c-28 -16 -31 -16 -77 1 -65 26 -69 24 -45 -17 21 -36 21 -37 3 -50 -10 -8 -22
-14 -25 -14 -3 0 -22 28 -42 63 -21 34 -49 81 -63 104 l-25 41 52 31 c58 33
90 34 120 3z m-2852 3 c16 -8 36 -25 44 -37 14 -20 14 -23 -5 -36 -18 -13 -22
-12 -35 7 -15 21 -48 28 -58 12 -3 -5 2 -19 12 -32 34 -46 41 -73 26 -107 -7
-18 -17 -32 -21 -33 -4 0 -18 -2 -31 -5 -27 -5 -57 9 -94 44 -33 30 -35 47 -9
61 15 9 22 6 35 -13 18 -29 54 -42 69 -27 7 7 2 22 -16 50 -41 62 -31 110 28
124 11 2 21 5 23 6 2 0 16 -6 32 -14z m183 -101 c39 -19 72 -36 73 -37 1 -1
-2 -13 -7 -26 -9 -22 -10 -22 -33 -8 -13 9 -27 13 -30 10 -4 -4 -24 -44 -46
-90 -38 -79 -42 -83 -63 -72 -12 6 -23 13 -25 14 -2 2 16 42 40 89 44 88 44
95 4 109 -8 3 1 47 10 47 2 0 37 -16 77 -36z m2465 24 c19 -19 14 -28 -23 -44
-35 -14 -42 -28 -26 -52 7 -12 14 -11 40 2 35 19 51 14 51 -13 0 -11 -12 -24
-31 -31 -16 -7 -28 -18 -25 -24 2 -6 11 -27 20 -47 15 -35 15 -36 -9 -47 -24
-11 -26 -9 -80 98 l-55 110 57 29 c68 35 65 35 81 19z m-2146 -152 c24 -6 78
-51 78 -67 0 -3 -10 -10 -23 -16 -18 -9 -25 -6 -40 13 -24 32 -62 31 -92 -2
-54 -59 -11 -145 59 -118 23 9 19 23 -9 34 -22 8 -24 13 -15 31 6 11 17 18 23
15 7 -2 29 -10 50 -17 34 -11 38 -15 32 -38 -9 -41 -59 -81 -101 -81 -140 0
-167 199 -34 248 14 5 30 8 35 7 6 -2 22 -6 37 -9z m1850 -3 c25 -29 30 -60
14 -90 l-14 -29 54 -29 c52 -28 53 -30 31 -42 -33 -18 -44 -16 -94 19 -45 31
-46 31 -39 7 3 -13 9 -33 12 -45 4 -15 -1 -23 -20 -32 -14 -6 -26 -10 -26 -8
0 2 -18 55 -40 117 -22 62 -40 114 -40 116 0 6 97 32 121 32 14 1 33 -7 41
-16z m-241 -68 c39 -21 69 -71 69 -115 0 -70 -62 -130 -128 -124 -15 1 -33 2
-39 3 -25 2 -71 62 -77 99 -10 63 7 102 57 132 39 24 78 25 118 5z m-1334 -9
c1 -1 5 -24 8 -52 3 -28 7 -61 10 -73 2 -13 7 -51 11 -84 6 -54 5 -60 -8 -50
-8 7 -18 10 -22 6 -3 -4 -12 8 -18 25 -19 48 -92 69 -115 33 -9 -15 -20 -18
-40 -15 -15 3 -28 6 -29 7 -1 1 32 50 74 109 69 98 78 107 101 101 14 -3 27
-6 28 -7z m202 -75 c6 -20 12 -49 15 -65 3 -16 7 -31 10 -33 5 -5 66 96 66
110 0 5 15 7 33 5 32 -3 32 -4 30 -53 -1 -27 -2 -83 -4 -122 -1 -40 -5 -73 -8
-73 -3 0 -16 3 -29 6 -21 6 -22 10 -18 75 2 38 3 69 1 69 -1 0 -17 -29 -34
-65 -44 -90 -64 -88 -80 6 -7 38 -15 68 -18 65 -3 -3 -11 -31 -17 -63 -11 -53
-14 -58 -40 -61 -28 -4 -28 -3 -22 35 4 21 16 77 27 124 l20 85 29 -4 c24 -3
32 -11 39 -41z m894 30 c5 -21 2 -22 -54 -35 -21 -5 -25 -10 -22 -29 4 -22 8
-23 43 -17 35 6 39 5 43 -16 5 -30 1 -34 -40 -34 l-33 0 6 -56 7 -56 -29 4
c-28 3 -28 5 -46 108 -9 58 -17 110 -17 117 -1 14 45 28 100 31 29 2 38 -1 42
-17z m-580 -20 c43 -1 47 -3 47 -26 0 -23 -4 -25 -44 -25 -41 0 -44 -2 -42
-25 1 -22 5 -25 43 -25 34 0 41 -3 38 -17 -2 -10 -4 -21 -4 -25 -1 -5 -19 -8
-41 -8 -36 0 -40 -2 -40 -25 0 -22 4 -25 38 -25 45 0 52 -4 45 -31 -5 -17 -12
-19 -67 -15 -33 2 -64 5 -67 5 -3 1 -5 25 -3 54 1 28 2 84 3 123 1 67 2 71 24
68 12 -1 43 -3 70 -3z m245 -2 c28 -10 30 -13 20 -34 -9 -20 -14 -22 -34 -15
-13 5 -31 7 -39 4 -28 -11 -15 -34 32 -56 118 -57 51 -178 -77 -139 -41 12
-50 30 -27 49 10 8 24 8 50 0 27 -8 41 -8 48 -1 16 16 4 30 -42 54 -50 25 -66
57 -49 98 17 43 64 59 118 40z"/>
<path d="M2935 6651 c3 -11 35 -122 70 -248 36 -125 78 -273 94 -328 16 -55
37 -128 47 -162 l17 -63 46 -1 c81 -2 156 2 162 9 6 7 96 316 105 360 3 13 10
37 17 53 11 28 16 17 77 -196 l64 -225 51 -1 c83 -2 150 2 156 9 8 8 229 784
229 801 0 7 -35 11 -100 11 l-99 0 -12 -42 c-6 -24 -12 -50 -14 -58 -2 -8 -11
-44 -20 -80 -9 -36 -19 -72 -20 -80 -22 -95 -67 -269 -73 -284 -7 -16 -12 -7
-24 40 -27 100 -77 284 -106 394 l-27 105 -71 3 -71 3 -74 -280 c-40 -154 -76
-278 -80 -276 -4 3 -26 82 -34 125 0 3 -25 101 -54 218 l-53 212 -105 0 c-99
0 -104 -1 -98 -19z"/>
<path d="M4281 6396 c-46 -116 -90 -224 -97 -241 -7 -16 -27 -66 -44 -110 -17
-44 -35 -89 -40 -100 -11 -25 -40 -96 -40 -100 0 -2 33 -16 73 -31 39 -15 77
-31 84 -36 6 -5 13 -5 16 -1 3 4 44 107 92 228 48 121 91 224 96 230 5 5 9 -1
10 -15 0 -14 2 -32 4 -40 4 -23 26 -132 31 -160 2 -14 9 -48 15 -76 5 -28 12
-64 15 -80 21 -123 38 -201 48 -211 6 -6 46 -25 89 -41 l78 -30 8 21 c47 122
247 622 261 653 40 88 41 87 -51 123 -45 17 -85 28 -89 24 -4 -4 -47 -108 -96
-231 -49 -125 -91 -217 -95 -210 -3 7 -9 31 -13 53 -6 32 -35 189 -61 325 -3
14 -12 63 -21 110 l-15 85 -87 36 -88 36 -83 -211z"/>
<path d="M1944 6317 c-43 -22 -80 -41 -82 -42 -3 -3 353 -723 361 -732 4 -3
405 192 416 203 5 5 -63 144 -71 144 -4 0 -62 -27 -130 -60 l-122 -61 -147
294 -146 294 -79 -40z"/>
<path d="M5298 6038 c-43 -11 -112 -68 -134 -109 -36 -71 -27 -151 32 -278 50
-107 57 -145 32 -176 -55 -70 -187 21 -220 153 -6 23 -14 45 -19 48 -5 3 -45
-7 -88 -23 -79 -27 -79 -28 -74 -58 12 -62 75 -164 138 -224 142 -133 284
-151 398 -50 56 49 78 101 72 171 -6 69 -14 95 -65 200 -51 106 -55 143 -19
170 24 18 29 18 60 5 45 -19 92 -68 115 -120 10 -23 19 -43 20 -45 2 -3 145
57 153 64 12 11 -66 138 -115 187 -85 85 -180 113 -286 85z"/>
<path d="M1337 5852 l-58 -57 20 -50 c11 -28 79 -210 152 -405 73 -195 135
-358 138 -362 3 -3 38 24 78 60 l72 67 -34 80 -33 80 72 66 c39 36 91 84 116
107 l45 41 72 -40 c40 -21 76 -39 80 -39 12 1 148 128 143 133 -5 5 -142 71
-643 311 -77 36 -144 66 -150 66 -7 -1 -38 -27 -70 -58z m343 -353 c-35 -32
-67 -59 -70 -59 -6 0 -90 208 -90 222 0 4 51 -18 113 -49 l112 -55 -65 -59z"/>
<path d="M837 5319 c-26 -38 -46 -73 -43 -77 2 -4 77 -56 165 -117 89 -60 238
-163 333 -228 94 -64 174 -115 176 -112 3 3 27 37 53 77 l47 72 -37 26 c-20
14 -112 77 -204 140 -93 63 -225 154 -295 202 -70 48 -131 88 -137 88 -5 0
-32 -32 -58 -71z"/>
<path d="M6040 5138 c-271 -134 -545 -270 -548 -273 -4 -4 66 -147 77 -158 6
-6 228 98 414 193 20 10 37 15 37 11 0 -4 -13 -27 -29 -52 -15 -24 -85 -137
-154 -251 l-125 -207 39 -80 c21 -45 43 -81 48 -81 12 0 717 343 728 354 6 6
-78 167 -85 163 -4 -2 -25 -12 -47 -22 -22 -10 -112 -54 -200 -97 -88 -44
-170 -84 -182 -88 -17 -7 4 34 89 173 191 313 198 325 198 336 0 20 -74 161
-85 160 -5 0 -84 -37 -175 -81z"/>
<path d="M657 4946 c-187 -184 -193 -480 -13 -659 82 -81 180 -119 296 -112
237 13 422 213 428 465 3 97 1 99 -128 85 -14 -2 -32 -3 -40 -4 -12 -1 -15
-17 -16 -74 -1 -83 -24 -143 -75 -195 -74 -75 -188 -100 -266 -58 -61 32 -68
38 -101 84 -66 93 -50 240 38 335 l47 51 -56 63 c-31 35 -59 63 -63 63 -4 0
-27 -20 -51 -44z"/>
<path d="M6590 4267 c-3 -3 -24 -7 -47 -10 -34 -5 -175 -28 -312 -52 -14 -2
-39 -6 -56 -9 -71 -12 -212 -37 -230 -40 -11 -2 -43 -7 -71 -11 -47 -6 -51 -9
-48 -31 2 -25 13 -94 20 -129 7 -37 15 -79 35 -195 11 -63 21 -115 22 -117 3
-3 149 26 154 31 2 2 -3 46 -12 98 -9 51 -18 109 -21 128 -3 19 -8 38 -10 42
-2 3 29 11 68 18 40 6 78 13 84 15 10 3 32 -100 49 -229 3 -16 6 -30 8 -32 5
-6 142 17 150 25 4 5 -1 63 -13 131 -22 128 -20 138 20 141 15 1 22 2 86 14
37 6 34 13 60 -147 9 -59 20 -111 23 -116 5 -7 63 -1 158 18 3 0 -11 93 -23
154 -5 27 -42 243 -47 276 -4 22 -34 39 -47 27z"/>
<path d="M617 4049 c-152 -35 -276 -157 -311 -307 -71 -304 206 -567 524 -497
59 13 147 63 195 110 57 57 93 128 109 214 39 212 -78 404 -289 473 -41 14
-181 18 -228 7z m227 -220 c156 -73 158 -293 3 -368 -106 -51 -271 -19 -333
66 -66 90 -45 230 42 288 74 48 203 54 288 14z"/>
<path d="M6657 3533 c-1 -1 -29 -4 -62 -7 -33 -3 -94 -10 -135 -16 -41 -5 -97
-12 -125 -15 -106 -11 -132 -14 -190 -20 -33 -3 -69 -8 -80 -9 -11 -2 -57 -7
-102 -11 -75 -7 -117 -24 -100 -41 3 -3 1 -20 -4 -37 -5 -17 -11 -56 -14 -87
l-6 -55 181 -85 c100 -47 193 -89 206 -93 39 -14 28 -24 -33 -32 -32 -3 -69
-8 -83 -10 -14 -2 -50 -6 -80 -9 -144 -15 -233 -26 -236 -28 -3 -3 -8 -34 -29
-169 -6 -35 -4 -37 32 -52 21 -8 106 -48 188 -87 83 -40 188 -90 235 -112 47
-22 135 -64 195 -93 61 -29 111 -52 112 -51 2 2 7 27 24 124 8 43 8 66 1 75
-6 6 -125 61 -266 122 -140 60 -254 110 -253 111 3 3 73 12 142 18 131 12 192
18 225 21 54 6 184 18 197 18 7 0 17 22 23 49 18 88 17 92 -52 123 -35 16 -94
43 -133 60 -38 18 -124 56 -190 85 -66 30 -124 57 -129 61 -4 4 27 10 70 14
44 3 99 8 124 10 25 3 86 7 135 11 50 4 101 8 115 9 14 2 43 4 65 4 22 1 45 5
51 9 7 4 18 51 26 104 l14 97 -29 -2 c-16 -1 -29 -3 -30 -4z"/>
<path d="M891 3129 c-74 -14 -141 -81 -169 -169 -6 -19 -18 -74 -26 -122 -15
-90 -36 -142 -59 -151 -25 -10 -66 5 -83 30 -21 32 -29 127 -16 175 12 43 10
45 -55 58 -26 6 -60 13 -74 16 -25 6 -28 3 -38 -44 -16 -76 -8 -199 18 -257
25 -56 97 -129 144 -144 125 -41 239 5 289 115 10 23 27 86 38 140 23 114 43
148 89 152 41 4 65 -17 84 -72 17 -49 14 -100 -9 -179 -10 -31 -15 -59 -13
-60 15 -12 163 -47 169 -40 17 19 32 84 37 163 9 129 -31 250 -106 326 -58 57
-132 79 -220 63z"/>
<path d="M3407 5545 c-1 -1 -41 -5 -88 -9 -48 -3 -93 -8 -100 -10 -8 -3 -34
-7 -59 -10 -25 -3 -70 -10 -100 -16 -30 -6 -65 -13 -77 -16 -105 -21 -369
-129 -503 -206 -219 -125 -489 -360 -607 -526 -26 -37 -53 -73 -60 -80 -7 -7
-13 -18 -13 -23 0 -6 -15 -34 -34 -62 -137 -215 -251 -516 -282 -743 -3 -27
-8 -57 -9 -66 -19 -96 -25 -314 -13 -453 7 -85 16 -141 44 -293 3 -13 11 -47
19 -75 178 -657 677 -1188 1320 -1405 142 -48 202 -62 360 -87 192 -30 490
-27 645 7 25 5 63 12 85 15 57 8 222 58 329 100 396 155 734 432 969 793 60
94 167 298 167 321 0 8 4 19 8 25 9 9 48 120 75 209 14 47 21 76 32 135 3 14
8 39 11 55 4 17 8 41 10 55 1 14 6 57 10 95 9 78 9 97 1 271 -7 147 -14 217
-32 314 -8 41 -17 88 -19 105 -12 69 -68 236 -124 365 -157 366 -462 715 -793
910 -301 176 -540 256 -884 296 -56 6 -282 13 -288 9z m288 -109 c44 -4 116
-14 160 -23 44 -8 89 -17 100 -19 92 -17 270 -82 410 -150 542 -261 953 -800
1055 -1384 6 -36 14 -76 17 -90 13 -55 11 -455 -3 -545 -33 -208 -94 -402
-185 -590 -49 -102 -150 -265 -198 -321 -14 -17 -42 -50 -63 -75 -54 -66 -167
-179 -223 -224 -28 -22 -52 -43 -55 -46 -11 -12 -118 -87 -185 -129 -210 -132
-490 -233 -755 -271 -94 -14 -359 -17 -460 -7 -481 51 -922 273 -1240 624
-104 115 -163 195 -245 329 -109 181 -216 475 -241 669 -18 139 -22 196 -22
321 1 321 67 594 212 882 294 584 921 1005 1561 1049 44 3 80 6 82 7 4 5 202
-1 278 -7z"/>
<path d="M3369 5316 c-2 -2 -33 -6 -69 -9 -36 -3 -111 -15 -168 -26 -670 -137
-1213 -649 -1389 -1309 -29 -109 -30 -114 -48 -242 -17 -120 -12 -403 9 -520
28 -151 35 -180 71 -288 180 -538 615 -972 1151 -1148 196 -64 328 -85 544
-89 302 -5 563 52 825 180 90 44 285 162 305 184 3 3 27 24 55 46 67 54 192
177 247 245 183 221 347 568 384 810 3 19 8 49 10 65 24 142 26 418 4 555 -38
238 -124 475 -245 675 -27 44 -53 85 -57 90 -5 6 -29 37 -54 70 -166 220 -395
407 -649 530 -108 53 -286 118 -354 130 -19 3 -37 8 -41 10 -25 15 -221 37
-361 40 -92 2 -168 3 -170 1z m213 -247 c57 -26 80 -103 48 -157 -40 -66 -123
-78 -175 -26 -90 90 12 237 127 183z m-218 -51 c24 -26 27 -37 23 -70 -7 -50
-30 -76 -75 -84 -39 -8 -98 17 -106 45 -21 70 0 124 56 140 44 12 68 5 102
-31z m881 -98 c9 -10 17 -35 18 -56 1 -51 -46 -95 -95 -88 -71 11 -103 86 -61
142 34 45 98 46 138 2z m-355 -6 c93 -55 90 -196 -6 -251 -46 -27 -80 -29
-132 -8 -118 47 -116 219 2 270 38 16 97 12 136 -11z m-795 -30 c61 -29 101
-124 81 -192 -41 -138 -233 -159 -304 -34 -81 144 71 298 223 226z m1374 -79
c68 -35 95 -107 66 -180 -45 -119 -209 -126 -265 -11 -61 127 73 256 199 191z
m-1007 -32 c54 -33 75 -112 44 -171 -39 -75 -134 -95 -198 -42 -129 107 9 298
154 213z m693 -33 c84 -52 74 -184 -18 -229 -97 -48 -212 37 -188 140 13 53
21 66 49 86 54 36 102 37 157 3z m-1361 -76 c24 -23 20 -70 -6 -88 -31 -22
-45 -20 -74 9 -25 26 -26 52 -2 83 14 17 63 15 82 -4z m917 -37 c40 -30 26
-95 -23 -108 -34 -9 -78 22 -78 55 0 54 59 85 101 53z m-756 -73 c27 -11 38
-53 21 -80 -29 -44 -87 -39 -105 9 -19 49 31 91 84 71z m941 -22 c55 -30 86
-102 70 -166 -8 -34 -58 -84 -91 -92 -113 -28 -211 73 -175 181 12 36 58 79
95 88 28 7 77 2 101 -11z m-1100 -23 c61 -37 82 -132 44 -194 -44 -71 -137
-96 -199 -53 -55 37 -74 70 -74 128 -1 118 125 183 229 119z m595 -21 c126
-71 75 -268 -69 -268 -150 0 -202 194 -73 269 46 27 94 26 142 -1z m994 -72
c40 -27 60 -66 59 -117 -4 -173 -266 -167 -266 6 0 100 124 166 207 111z
m-1343 -25 c76 -29 107 -106 74 -184 -40 -96 -183 -100 -235 -6 -38 67 -12
145 60 181 38 20 66 22 101 9z m608 -9 c26 -21 30 -66 9 -87 -26 -25 -63 -28
-87 -5 -59 56 15 143 78 92z m482 1 c25 -23 23 -68 -4 -87 -31 -22 -54 -20
-78 6 -50 54 27 131 82 81z m-1331 -208 c69 -45 99 -121 78 -200 -23 -85 -89
-136 -178 -137 -103 0 -185 81 -184 183 2 146 164 234 284 154z m618 -72 c61
-46 80 -120 48 -185 -72 -142 -277 -94 -277 65 0 115 138 187 229 120z m-314
-77 c39 -26 58 -63 57 -112 -1 -100 -98 -161 -188 -118 -85 40 -100 146 -29
216 40 40 110 47 160 14z m639 -80 c47 -19 78 -67 78 -121 1 -51 -19 -88 -65
-115 -65 -40 -148 -18 -185 49 -36 66 -15 141 51 181 38 23 75 25 121 6z
m-883 -155 c65 -24 95 -132 55 -193 -48 -74 -151 -84 -213 -22 -23 22 -41 77
-36 108 13 93 103 142 194 107z m423 8 c33 -15 44 -63 21 -89 -25 -27 -52 -30
-80 -8 -37 29 -33 72 10 96 25 14 20 14 49 1z m750 -25 c18 -18 21 -47 6 -73
-13 -26 -35 -32 -70 -20 -38 14 -49 49 -26 84 19 29 66 34 90 9z m-504 -33
c48 -25 83 -93 76 -145 -21 -147 -205 -185 -279 -58 -75 128 71 274 203 203z
m-350 -49 c68 -27 102 -118 70 -189 -26 -58 -72 -87 -136 -87 -63 1 -106 30
-129 86 -19 49 -19 81 1 121 40 76 112 102 194 69z m796 -53 c30 -27 54 -77
54 -111 0 -12 -9 -40 -20 -63 -44 -91 -166 -107 -234 -31 -53 61 -47 146 16
202 33 30 46 34 106 30 38 -2 59 -9 78 -27z m284 -89 c63 -26 97 -135 62 -200
-59 -108 -209 -105 -262 5 -32 67 -16 134 43 179 48 36 94 41 157 16z m195 -4
c20 -31 5 -73 -30 -86 -48 -18 -91 23 -73 69 12 32 25 41 60 41 18 0 33 -8 43
-24z m-1512 -58 c16 -25 0 -65 -30 -75 -40 -13 -59 -6 -74 29 -14 35 -5 56 32
75 26 13 53 2 72 -29z m704 -56 c28 -15 50 -52 58 -95 6 -29 2 -46 -19 -81
-27 -46 -63 -66 -120 -66 -89 0 -154 108 -112 188 38 74 115 95 193 54z m-264
-32 c40 -44 34 -119 -13 -148 -97 -60 -201 41 -143 139 33 55 109 60 156 9z
m1144 -56 c33 -25 62 -78 63 -117 0 -28 -22 -81 -44 -102 -41 -41 -107 -51
-161 -25 -98 47 -108 184 -18 245 45 30 119 29 160 -1z m-550 -10 c72 -46 76
-167 7 -218 -57 -41 -153 -27 -190 28 -43 67 -21 161 48 194 43 22 98 20 135
-4z m248 -138 c104 -44 100 -207 -6 -249 -93 -38 -189 24 -191 123 -1 102 99
166 197 126z m-462 -77 c72 -33 44 -143 -35 -141 -41 1 -80 42 -74 77 7 39 25
63 48 68 13 2 26 5 30 6 4 0 18 -4 31 -10z m930 -95 c38 -28 57 -67 57 -116 0
-79 -57 -138 -134 -138 -91 0 -153 69 -143 157 5 47 24 74 72 105 37 24 110
20 148 -8z m-737 -14 c66 -23 100 -131 60 -192 -39 -59 -126 -80 -181 -44
-137 90 -35 290 121 236z m-1133 -121 c70 -32 66 -144 -5 -173 -44 -19 -83
-10 -113 26 -68 81 21 191 118 147z m291 -58 c112 -98 -2 -280 -141 -222 -90
37 -105 175 -24 228 53 35 120 32 165 -6z m1155 -52 c64 -59 12 -164 -74 -152
-40 6 -63 29 -71 70 -16 86 82 141 145 82z m261 -19 c26 -14 56 -59 64 -96 15
-68 -43 -143 -116 -151 -110 -11 -186 108 -125 198 40 60 117 81 177 49z
m-720 -5 c65 -34 91 -113 60 -183 -47 -105 -191 -108 -246 -6 -63 118 67 251
186 189z m-312 -75 c66 -41 91 -125 56 -193 -21 -40 -47 -59 -98 -73 -53 -14
-95 -1 -137 42 -42 44 -51 121 -20 172 28 43 77 72 126 72 22 0 54 -9 73 -20z
m-831 -27 c71 -46 29 -168 -58 -165 -97 3 -126 127 -41 172 34 19 62 16 99 -7z
m1447 -15 c126 -68 90 -258 -52 -273 -79 -7 -162 64 -162 139 0 109 120 184
214 134z m-910 -102 c67 -28 97 -127 57 -192 -66 -108 -241 -63 -243 63 -1
104 91 169 186 129z m-307 -26 c87 -52 96 -158 19 -229 -83 -78 -226 -10 -228
108 -1 106 119 176 209 121z m1490 -10 c78 -28 107 -149 49 -209 -109 -114
-285 2 -216 143 31 64 97 90 167 66z m-515 -82 c27 -22 28 -56 3 -86 -20 -23
-26 -25 -51 -17 -16 6 -34 21 -41 35 -26 53 42 105 89 68z m-1256 -44 c55 -34
47 -136 -13 -163 -69 -32 -143 13 -143 87 0 81 84 122 156 76z m1135 -47 c74
-49 75 -158 3 -214 -82 -62 -202 -8 -209 94 -8 113 113 183 206 120z m331 -23
c75 -39 108 -145 69 -221 -32 -64 -73 -88 -151 -88 -80 0 -123 26 -152 93 -66
147 90 291 234 216z m-624 -54 c47 -29 74 -93 62 -145 -10 -43 -66 -104 -97
-106 -10 0 -25 -2 -34 -4 -30 -5 -98 33 -119 67 -73 120 68 261 188 188z
m-520 -51 c50 -36 32 -126 -29 -148 -46 -16 -100 12 -113 57 -13 48 13 98 56
110 35 10 51 6 86 -19z m261 -75 c33 -28 42 -75 21 -115 -23 -42 -101 -58
-138 -27 -16 13 -39 58 -37 73 9 87 90 123 154 69z m591 -84 c36 -36 19 -92
-33 -105 -20 -5 -32 -1 -51 19 -31 31 -32 45 -5 80 25 31 61 34 89 6z"/>
<path d="M1720 1380 c-14 -26 -1 -44 23 -34 21 8 22 28 3 43 -12 10 -17 8 -26
-9z"/>
<path d="M1657 1303 c-9 -11 -17 -25 -17 -31 0 -18 41 -25 57 -10 12 13 12 18
-4 37 -18 22 -19 22 -36 4z"/>
<path d="M4897 1139 c-16 -9 -16 -12 -1 -34 19 -29 39 -32 48 -9 9 25 7 33
-12 43 -11 6 -24 6 -35 0z"/>
<path d="M4396 901 c-3 -5 -2 -21 4 -36 8 -22 13 -24 31 -15 27 15 22 54 -8
58 -11 2 -24 -1 -27 -7z"/>
<path d="M4143 814 c-20 -20 -24 -32 -19 -57 8 -41 33 -67 66 -67 78 0 79 130
2 145 -16 3 -32 -4 -49 -21z"/>
<path d="M2836 763 c-15 -30 -15 -31 9 -36 20 -3 25 0 25 17 0 11 -4 27 -9 35
-7 11 -13 7 -25 -16z"/>
</g>
</svg>
